M48
; DRILL file {KiCad 7.0.6} date Tue Nov  5 18:24:01 2024
; FORMAT={-:-/ absolute / inch / decimal}
; #@! TF.CreationDate,2024-11-05T18:24:01-06:00
; #@! TF.GenerationSoftware,Kicad,Pcbnew,7.0.6
; #@! TF.FileFunction,NonPlated,1,2,NPTH
FMAT,2
INCH
; #@! TA.AperFunction,NonPlated,NPTH,ComponentDrill
T1C0.0197
; #@! TA.AperFunction,NonPlated,NPTH,ComponentDrill
T2C0.0354
; #@! TA.AperFunction,NonPlated,NPTH,ComponentDrill
T3C0.0709
; #@! TA.AperFunction,NonPlated,NPTH,ComponentDrill
T4C0.1201
; #@! TA.AperFunction,NonPlated,NPTH,ComponentDrill
T5C0.1339
%
G90
G05
T1
X5.015Y-1.92
X5.015Y-1.96
X5.015Y-2.0
X5.015Y-2.04
X5.015Y-2.08
X5.015Y-2.6075
X5.015Y-2.6475
X5.015Y-2.6875
X5.015Y-2.7275
X5.015Y-2.7675
X5.095Y-1.92
X5.095Y-1.96
X5.095Y-2.0
X5.095Y-2.04
X5.095Y-2.08
X5.095Y-2.6075
X5.095Y-2.6475
X5.095Y-2.6875
X5.095Y-2.7275
X5.095Y-2.7675
T2
X1.0089Y-1.2999
X1.1271Y-1.2999
X8.9939Y-1.2999
X9.1121Y-1.2999
T3
X1.203Y-3.7969
X1.578Y-3.5804
X1.5849Y-2.6895
X1.5849Y-1.3509
X1.5849Y-2.0202
X1.9112Y-3.4424
X2.018Y-2.6895
X2.018Y-1.3509
X2.018Y-2.0202
X2.2936Y-1.2525
X2.2936Y-1.9218
X2.2936Y-2.5911
X2.3295Y-3.3303
X2.7267Y-1.2525
X2.7267Y-1.9218
X2.7267Y-2.5911
X3.0022Y-1.6659
X3.0022Y-2.3352
X3.0022Y-0.9966
X3.4353Y-1.6659
X3.4353Y-2.3352
X3.4353Y-0.9966
X3.7109Y-1.9021
X3.7109Y-2.5714
X3.7109Y-1.2328
X4.1439Y-1.9021
X4.1439Y-2.5714
X4.1439Y-1.2328
X4.4195Y-3.0439
X4.4195Y-2.3746
X4.4195Y-1.7053
X4.8526Y-3.0439
X4.8526Y-2.3746
X4.8526Y-1.7053
X5.2576Y-1.7065
X5.2576Y-2.3758
X5.2576Y-3.0451
X5.6906Y-1.7065
X5.6906Y-2.3758
X5.6906Y-3.0451
X5.9662Y-1.2341
X5.9662Y-1.9034
X5.9662Y-2.5727
X6.3993Y-1.2341
X6.3993Y-1.9034
X6.3993Y-2.5727
X6.6749Y-0.9979
X6.6749Y-1.6671
X6.6749Y-2.3364
X7.108Y-0.9979
X7.108Y-1.6671
X7.108Y-2.3364
X7.3835Y-1.9231
X7.3835Y-2.5923
X7.3835Y-1.2538
X7.7806Y-3.3316
X7.8166Y-1.9231
X7.8166Y-2.5923
X7.8166Y-1.2538
X8.0922Y-1.3522
X8.0922Y-2.0215
X8.0922Y-2.6908
X8.199Y-3.4437
X8.5253Y-1.3522
X8.5253Y-2.0215
X8.5253Y-2.6908
X8.5321Y-3.5817
X8.9072Y-3.7982
T4
X1.2744Y-3.4875
X1.4862Y-3.4607
X1.8014Y-2.4572
X1.8014Y-1.1187
X1.8014Y-1.7879
X1.9983Y-2.5399
X1.9983Y-1.2013
X1.9983Y-1.8706
X2.0602Y-3.162
X2.2718Y-3.1909
X2.5101Y-1.0202
X2.5101Y-1.6895
X2.5101Y-2.3588
X2.707Y-1.1029
X2.707Y-1.7722
X2.707Y-2.4415
X3.2188Y-1.4336
X3.2188Y-2.1029
X3.2188Y-0.7643
X3.4156Y-1.5163
X3.4156Y-2.1856
X3.4156Y-0.847
X3.9274Y-1.6699
X3.9274Y-2.3391
X3.9274Y-1.0006
X4.1243Y-1.7525
X4.1243Y-2.4218
X4.1243Y-1.0832
X4.6361Y-2.8116
X4.6361Y-2.1423
X4.6361Y-1.473
X4.8329Y-2.8943
X4.8329Y-2.225
X4.8329Y-1.5557
X5.4741Y-1.4743
X5.4741Y-2.1435
X5.4741Y-2.8128
X5.6709Y-1.5569
X5.6709Y-2.2262
X5.6709Y-2.8955
X6.1828Y-1.0018
X6.1828Y-1.6711
X6.1828Y-2.3404
X6.3796Y-1.0845
X6.3796Y-1.7538
X6.3796Y-2.4231
X6.8914Y-0.7656
X6.8914Y-1.4349
X6.8914Y-2.1042
X7.0883Y-0.8483
X7.0883Y-1.5175
X7.0883Y-2.1868
X7.6Y-1.6908
X7.6Y-2.3601
X7.6Y-1.0215
X7.7969Y-1.7734
X7.7969Y-2.4427
X7.7969Y-1.1042
X8.0499Y-3.1632
X8.2187Y-3.294
X8.3087Y-1.1199
X8.3087Y-1.7892
X8.3087Y-2.4585
X8.5056Y-1.2026
X8.5056Y-1.8719
X8.5056Y-2.5412
X8.8358Y-3.4888
X8.9649Y-3.6588
T5
X1.3905Y-3.6887
X1.8014Y-2.6895
X1.8014Y-1.3509
X1.8014Y-2.0202
X2.1204Y-3.3864
X2.5101Y-1.2525
X2.5101Y-1.9218
X2.5101Y-2.5911
X3.2188Y-1.6659
X3.2188Y-2.3352
X3.2188Y-0.9966
X3.9274Y-1.9021
X3.9274Y-2.5714
X3.9274Y-1.2328
X4.6361Y-3.0439
X4.6361Y-2.3746
X4.6361Y-1.7053
X5.4741Y-1.7065
X5.4741Y-2.3758
X5.4741Y-3.0451
X6.1828Y-1.2341
X6.1828Y-1.9034
X6.1828Y-2.5727
X6.8914Y-0.9979
X6.8914Y-1.6671
X6.8914Y-2.3364
X7.6Y-1.9231
X7.6Y-2.5923
X7.6Y-1.2538
X7.9898Y-3.3876
X8.3087Y-1.3522
X8.3087Y-2.0215
X8.3087Y-2.6908
X8.7196Y-3.6899
T0
M30
