M48
; DRILL file {KiCad 7.0.6} date Tue Nov  5 18:24:01 2024
; FORMAT={-:-/ absolute / inch / decimal}
; #@! TF.CreationDate,2024-11-05T18:24:01-06:00
; #@! TF.GenerationSoftware,Kicad,Pcbnew,7.0.6
; #@! TF.FileFunction,Plated,1,2,PTH
FMAT,2
INCH
; #@! TA.AperFunction,Plated,PTH,ComponentDrill
T1C0.0120
; #@! TA.AperFunction,Plated,PTH,ViaDrill
T2C0.0157
; #@! TA.AperFunction,Plated,PTH,ComponentDrill
T3C0.0295
; #@! TA.AperFunction,Plated,PTH,ComponentDrill
T4C0.0430
; #@! TA.AperFunction,Plated,PTH,ComponentDrill
T5C0.1496
%
G90
G05
T1
X1.7045Y-3.5334
X1.7311Y-3.5794
X1.7981Y-3.4943
X1.8119Y-3.5457
X2.1278Y-1.3979
X2.1278Y-1.3448
X2.14Y-2.3866
X2.14Y-2.3334
X2.1478Y-2.8229
X2.1478Y-2.7698
X2.8428Y-2.0729
X2.8428Y-2.0198
X2.8478Y-1.5067
X2.8478Y-1.4536
X3.0336Y-2.67
X3.0867Y-2.67
X3.5578Y-1.0579
X3.5578Y-2.4129
X3.5578Y-1.0048
X3.5578Y-2.3598
X3.5678Y-1.7979
X3.5678Y-1.7448
X4.27Y-1.3764
X4.27Y-1.3233
X4.2778Y-2.0329
X4.2778Y-1.9798
X4.3078Y-2.9429
X4.3078Y-2.8898
X4.9728Y-1.7529
X4.9728Y-2.4429
X4.9728Y-3.1129
X4.9728Y-1.6998
X4.9728Y-2.3898
X4.9728Y-3.0598
X5.815Y-2.4366
X5.815Y-2.3834
X5.815Y-1.7696
X5.815Y-3.1296
X5.8151Y-1.7165
X5.8151Y-3.0765
X6.52Y-1.3046
X6.52Y-2.0046
X6.52Y-2.6596
X6.5201Y-1.2515
X6.5201Y-1.9515
X6.5201Y-2.6065
X7.23Y-2.3967
X7.23Y-2.3436
X7.235Y-1.0746
X7.2351Y-1.0215
X7.24Y-1.8038
X7.2401Y-1.7507
X7.94Y-2.2916
X7.94Y-2.2384
X7.94Y-2.6896
X7.9401Y-2.6365
X7.95Y-1.3246
X7.9501Y-1.2715
X8.3063Y-3.5306
X8.32Y-3.4793
X8.3968Y-3.5711
X8.4233Y-3.5251
X8.4835Y-3.0231
X8.4885Y-2.3531
X8.4935Y-1.6881
X8.5366Y-3.0231
X8.5416Y-2.3531
X8.5466Y-1.6881
T2
X0.7628Y-3.0502
X0.811Y-3.0994
X0.875Y-1.8
X0.95Y-1.9
X1.05Y-1.7
X1.1628Y-1.5543
X1.198Y-1.4009
X1.2578Y-1.3993
X1.375Y-2.8377
X1.4528Y-2.7964
X1.7278Y-3.2564
X1.9278Y-2.7964
X2.19Y-2.185
X3.0778Y-2.1714
X3.12Y-2.7385
X3.7878Y-2.4164
X4.4778Y-3.2014
X5.3363Y-1.9618
X5.9Y-2.0581
X6.045Y-2.2181
X6.755Y-2.2481
X7.8375Y-2.1065
X8.05Y-2.2
X8.05Y-2.525
X8.17Y-2.9031
X8.2Y-2.7781
X8.6004Y-3.2133
X8.635Y-3.0531
X8.6503Y-3.4165
X8.7943Y-3.1909
X8.84Y-1.791
X8.945Y-1.896
X9.025Y-3.8031
X9.045Y-1.701
X9.1417Y-1.5527
X9.182Y-1.3939
X9.21Y-1.441
X9.2132Y-2.186
X9.24Y-1.396
T3
X0.8696Y-2.9002
X0.8696Y-2.9789
X9.2315Y-2.9006
X9.2315Y-2.9794
T4
X0.7626Y-1.3935
X0.7626Y-1.4935
X0.7626Y-1.5935
X0.7626Y-1.6935
X0.7626Y-1.7935
X0.7626Y-1.8935
X0.7626Y-1.9935
X0.7626Y-2.0935
X0.7626Y-2.1935
X0.7626Y-2.2935
X0.7626Y-2.3935
X0.7626Y-2.4935
X0.8578Y-2.7481
X0.9578Y-2.7481
X1.0578Y-2.7481
X1.1578Y-2.7481
X1.2578Y-2.7481
X1.3626Y-1.3935
X1.3626Y-1.4935
X1.3626Y-1.5935
X1.3626Y-1.6935
X1.3626Y-1.7935
X1.3626Y-1.8935
X1.3626Y-1.9935
X1.3626Y-2.0935
X1.3626Y-2.1935
X1.3626Y-2.2935
X1.3626Y-2.3935
X1.3626Y-2.4935
X8.7475Y-1.3948
X8.7475Y-1.4948
X8.7475Y-1.5948
X8.7475Y-1.6948
X8.7475Y-1.7948
X8.7475Y-1.8948
X8.7475Y-1.9948
X8.7475Y-2.0948
X8.7475Y-2.1948
X8.7475Y-2.2948
X8.7475Y-2.3948
X8.7475Y-2.4948
X8.8417Y-2.7498
X8.9417Y-2.7498
X9.0417Y-2.7498
X9.1417Y-2.7498
X9.2417Y-2.7498
X9.3475Y-1.3948
X9.3475Y-1.4948
X9.3475Y-1.5948
X9.3475Y-1.6948
X9.3475Y-1.7948
X9.3475Y-1.8948
X9.3475Y-1.9948
X9.3475Y-2.0948
X9.3475Y-2.1948
X9.3475Y-2.2948
X9.3475Y-2.3948
X9.3475Y-2.4948
T5
X1.5935Y-3.1466
X2.1558Y-1.5872
X2.8644Y-2.7092
X4.27Y-1.57
X4.2817Y-2.7092
X5.8284Y-2.7105
X6.525Y-1.575
X7.2457Y-2.7105
X7.9544Y-1.5884
X8.5167Y-3.1479
T0
M30
