%TF.GenerationSoftware,KiCad,Pcbnew,7.0.6*%
%TF.CreationDate,2024-11-05T18:23:53-06:00*%
%TF.ProjectId,main,6d61696e-2e6b-4696-9361-645f70636258,rev?*%
%TF.SameCoordinates,Original*%
%TF.FileFunction,Soldermask,Top*%
%TF.FilePolarity,Negative*%
%FSLAX46Y46*%
G04 Gerber Fmt 4.6, Leading zero omitted, Abs format (unit mm)*
G04 Created by KiCad (PCBNEW 7.0.6) date 2024-11-05 18:23:53*
%MOMM*%
%LPD*%
G01*
G04 APERTURE LIST*
G04 Aperture macros list*
%AMRoundRect*
0 Rectangle with rounded corners*
0 $1 Rounding radius*
0 $2 $3 $4 $5 $6 $7 $8 $9 X,Y pos of 4 corners*
0 Add a 4 corners polygon primitive as box body*
4,1,4,$2,$3,$4,$5,$6,$7,$8,$9,$2,$3,0*
0 Add four circle primitives for the rounded corners*
1,1,$1+$1,$2,$3*
1,1,$1+$1,$4,$5*
1,1,$1+$1,$6,$7*
1,1,$1+$1,$8,$9*
0 Add four rect primitives between the rounded corners*
20,1,$1+$1,$2,$3,$4,$5,0*
20,1,$1+$1,$4,$5,$6,$7,0*
20,1,$1+$1,$6,$7,$8,$9,0*
20,1,$1+$1,$8,$9,$2,$3,0*%
%AMRotRect*
0 Rectangle, with rotation*
0 The origin of the aperture is its center*
0 $1 length*
0 $2 width*
0 $3 Rotation angle, in degrees counterclockwise*
0 Add horizontal line*
21,1,$1,$2,0,0,$3*%
G04 Aperture macros list end*
%ADD10C,1.800000*%
%ADD11C,3.050000*%
%ADD12C,3.400000*%
%ADD13C,4.200000*%
%ADD14C,1.752600*%
%ADD15RotRect,1.550000X1.000000X60.000000*%
%ADD16C,0.500000*%
%ADD17RoundRect,0.250000X-0.625000X0.350000X-0.625000X-0.350000X0.625000X-0.350000X0.625000X0.350000X0*%
%ADD18O,1.750000X1.200000*%
%ADD19RoundRect,0.250000X0.625000X-0.350000X0.625000X0.350000X-0.625000X0.350000X-0.625000X-0.350000X0*%
%ADD20RotRect,1.550000X1.000000X297.500000*%
%ADD21C,1.000000*%
G04 APERTURE END LIST*
D10*
%TO.C,SW6*%
X133541961Y-60346064D03*
D11*
X139041961Y-54446064D03*
D12*
X139041961Y-60346064D03*
D11*
X144041961Y-56546064D03*
D10*
X144541961Y-60346064D03*
%TD*%
%TO.C,SW19*%
X58257249Y-31813724D03*
D11*
X63757249Y-25913724D03*
D12*
X63757249Y-31813724D03*
D11*
X68757249Y-28013724D03*
D10*
X69257249Y-31813724D03*
%TD*%
%TO.C,SW12*%
X151541964Y-65346069D03*
D11*
X157041964Y-59446069D03*
D12*
X157041964Y-65346069D03*
D11*
X162041964Y-61546069D03*
D10*
X162541964Y-65346069D03*
%TD*%
%TO.C,SW27*%
X112256252Y-60314218D03*
D11*
X117756252Y-54414218D03*
D12*
X117756252Y-60314218D03*
D11*
X122756252Y-56514218D03*
D10*
X123256252Y-60314218D03*
%TD*%
D13*
%TO.C,H4*%
X184041963Y-68845564D03*
%TD*%
D10*
%TO.C,SW25*%
X76256250Y-42313719D03*
D11*
X81756250Y-36413719D03*
D12*
X81756250Y-42313719D03*
D11*
X86756250Y-38513719D03*
D10*
X87256250Y-42313719D03*
%TD*%
D14*
%TO.C,Display1*%
X224580161Y-69844478D03*
X227120161Y-69844478D03*
X229660161Y-69844478D03*
X232200161Y-69844478D03*
X234740161Y-69844478D03*
%TD*%
D15*
%TO.C,RSW0*%
X237684422Y-82403483D03*
X235059422Y-86950117D03*
X236212178Y-81553483D03*
X233587178Y-86100117D03*
%TD*%
D10*
%TO.C,SW26*%
X94256249Y-48314217D03*
D11*
X99756249Y-42414217D03*
D12*
X99756249Y-48314217D03*
D11*
X104756249Y-44514217D03*
D10*
X105256249Y-48314217D03*
%TD*%
D16*
%TO.C,mouse-bite-2mm-slot*%
X127381000Y-48768000D03*
X127381000Y-49784000D03*
X127381000Y-50800000D03*
X127381000Y-51816000D03*
X127381000Y-52832000D03*
X129413000Y-48768000D03*
X129413000Y-49784000D03*
X129413000Y-50800000D03*
X129413000Y-51816000D03*
X129413000Y-52832000D03*
%TD*%
D10*
%TO.C,SW10*%
X205541963Y-51345570D03*
D11*
X211041963Y-45445570D03*
D12*
X211041963Y-51345570D03*
D11*
X216041963Y-47545570D03*
D10*
X216541963Y-51345570D03*
%TD*%
%TO.C,SW14*%
X187540961Y-65845566D03*
D11*
X193040961Y-59945566D03*
D12*
X193040961Y-65845566D03*
D11*
X198040961Y-62045566D03*
D10*
X198540961Y-65845566D03*
%TD*%
%TO.C,SW22*%
X112256254Y-43314221D03*
D11*
X117756254Y-37414221D03*
D12*
X117756254Y-43314221D03*
D11*
X122756254Y-39514221D03*
D10*
X123256254Y-43314221D03*
%TD*%
%TO.C,SW31*%
X94256249Y-65314223D03*
D11*
X99756249Y-59414223D03*
D12*
X99756249Y-65314223D03*
D11*
X104756249Y-61514223D03*
D10*
X105256249Y-65314223D03*
%TD*%
%TO.C,SW32*%
X112256250Y-77314221D03*
D11*
X117756250Y-71414221D03*
D12*
X117756250Y-77314221D03*
D11*
X122756250Y-73514221D03*
D10*
X123256250Y-77314221D03*
%TD*%
D17*
%TO.C,J1*%
X234479000Y-73676000D03*
D18*
X234479000Y-75676000D03*
%TD*%
D13*
%TO.C,H3*%
X202040962Y-40345569D03*
%TD*%
D10*
%TO.C,SW20*%
X76256253Y-25313722D03*
D11*
X81756253Y-19413722D03*
D12*
X81756253Y-25313722D03*
D11*
X86756253Y-21513722D03*
D10*
X87256253Y-25313722D03*
%TD*%
%TO.C,SW23*%
X40256250Y-51313724D03*
D11*
X45756250Y-45413724D03*
D12*
X45756250Y-51313724D03*
D11*
X50756250Y-47513724D03*
D10*
X51256250Y-51313724D03*
%TD*%
%TO.C,SW7*%
X151541964Y-48346063D03*
D11*
X157041964Y-42446063D03*
D12*
X157041964Y-48346063D03*
D11*
X162041964Y-44546063D03*
D10*
X162541964Y-48346063D03*
%TD*%
%TO.C,SW17*%
X216715787Y-90974187D03*
D11*
X224428927Y-88614637D03*
D12*
X221478927Y-93724187D03*
D11*
X227709054Y-92933290D03*
D10*
X226242067Y-96474187D03*
%TD*%
%TO.C,SW34*%
X48544617Y-87436926D03*
D11*
X52330177Y-80314459D03*
D12*
X53857209Y-86013421D03*
D11*
X57703326Y-81048808D03*
D10*
X59169801Y-84589916D03*
%TD*%
%TO.C,SW8*%
X169541963Y-42345565D03*
D11*
X175041963Y-36445565D03*
D12*
X175041963Y-42345565D03*
D11*
X180041963Y-38545565D03*
D10*
X180541963Y-42345565D03*
%TD*%
%TO.C,SW18*%
X40256250Y-34313721D03*
D11*
X45756250Y-28413721D03*
D12*
X45756250Y-34313721D03*
D11*
X50756250Y-30513721D03*
D10*
X51256250Y-34313721D03*
%TD*%
%TO.C,SW13*%
X169541963Y-59345566D03*
D11*
X175041963Y-53445566D03*
D12*
X175041963Y-59345566D03*
D11*
X180041963Y-55545566D03*
D10*
X180541963Y-59345566D03*
%TD*%
%TO.C,SW15*%
X205541966Y-68345564D03*
D11*
X211041966Y-62445564D03*
D12*
X211041966Y-68345564D03*
D11*
X216041966Y-64545564D03*
D10*
X216541966Y-68345564D03*
%TD*%
%TO.C,SW29*%
X58257252Y-65813720D03*
D11*
X63757252Y-59913720D03*
D12*
X63757252Y-65813720D03*
D11*
X68757252Y-62013720D03*
D10*
X69257252Y-65813720D03*
%TD*%
%TO.C,SW9*%
X187540961Y-48845565D03*
D11*
X193040961Y-42945565D03*
D12*
X193040961Y-48845565D03*
D11*
X198040961Y-45045565D03*
D10*
X198540961Y-48845565D03*
%TD*%
%TO.C,SW5*%
X205541963Y-34345567D03*
D11*
X211041963Y-28445567D03*
D12*
X211041963Y-34345567D03*
D11*
X216041963Y-30545567D03*
D10*
X216541963Y-34345567D03*
%TD*%
D13*
%TO.C,H4*%
X216323118Y-79955998D03*
%TD*%
D19*
%TO.C,J2*%
X22088000Y-75664000D03*
D18*
X22088000Y-73664000D03*
%TD*%
D10*
%TO.C,SW11*%
X133541963Y-77346067D03*
D11*
X139041963Y-71446067D03*
D12*
X139041963Y-77346067D03*
D11*
X144041963Y-73546067D03*
D10*
X144541963Y-77346067D03*
%TD*%
%TO.C,SW21*%
X94256251Y-31314222D03*
D11*
X99756251Y-25414222D03*
D12*
X99756251Y-31314222D03*
D11*
X104756251Y-27514222D03*
D10*
X105256251Y-31314222D03*
%TD*%
%TO.C,SW33*%
X30556146Y-96442341D03*
D11*
X32369286Y-88582791D03*
D12*
X35319286Y-93692341D03*
D11*
X37749413Y-87901444D03*
D10*
X40082426Y-90942341D03*
%TD*%
D13*
%TO.C,H1*%
X165735000Y-40005000D03*
%TD*%
D16*
%TO.C,mouse-bite-2mm-slot*%
X127381000Y-66230500D03*
X127381000Y-67246500D03*
X127381000Y-68262500D03*
X127381000Y-69278500D03*
X127381000Y-70294500D03*
X129413000Y-66230500D03*
X129413000Y-67246500D03*
X129413000Y-68262500D03*
X129413000Y-69278500D03*
X129413000Y-70294500D03*
%TD*%
D10*
%TO.C,SW24*%
X58257252Y-48813719D03*
D11*
X63757252Y-42913719D03*
D12*
X63757252Y-48813719D03*
D11*
X68757252Y-45013719D03*
D10*
X69257252Y-48813719D03*
%TD*%
D14*
%TO.C,Display2*%
X21787496Y-69801663D03*
X24327496Y-69801663D03*
X26867496Y-69801663D03*
X29407496Y-69801663D03*
X31947496Y-69801663D03*
%TD*%
D10*
%TO.C,SW4*%
X187540964Y-31845570D03*
D11*
X193040964Y-25945570D03*
D12*
X193040964Y-31845570D03*
D11*
X198040964Y-28045570D03*
D10*
X198540964Y-31845570D03*
%TD*%
%TO.C,SW2*%
X151541962Y-31346068D03*
D11*
X157041962Y-25446068D03*
D12*
X157041962Y-31346068D03*
D11*
X162041962Y-27546068D03*
D10*
X162541962Y-31346068D03*
%TD*%
%TO.C,SW30*%
X76256250Y-59313720D03*
D11*
X81756250Y-53413720D03*
D12*
X81756250Y-59313720D03*
D11*
X86756250Y-55513720D03*
D10*
X87256250Y-59313720D03*
%TD*%
D13*
%TO.C,H2*%
X148041963Y-68846065D03*
%TD*%
D10*
%TO.C,SW16*%
X197628412Y-84621762D03*
D11*
X204468036Y-80346305D03*
D12*
X202941004Y-86045267D03*
D11*
X208754146Y-83668844D03*
D10*
X208253596Y-87468772D03*
%TD*%
%TO.C,SW3*%
X169541960Y-25345568D03*
D11*
X175041960Y-19445568D03*
D12*
X175041960Y-25345568D03*
D11*
X180041960Y-21545568D03*
D10*
X180541960Y-25345568D03*
%TD*%
%TO.C,SW28*%
X40256247Y-68313718D03*
D11*
X45756247Y-62413718D03*
D12*
X45756247Y-68313718D03*
D11*
X50756247Y-64513718D03*
D10*
X51256247Y-68313718D03*
%TD*%
%TO.C,SW1*%
X133541959Y-43346067D03*
D11*
X139041959Y-37446067D03*
D12*
X139041959Y-43346067D03*
D11*
X144041959Y-39546067D03*
D10*
X144541959Y-43346067D03*
%TD*%
D20*
%TO.C,RSW1*%
X21658131Y-87070890D03*
X19233951Y-82414083D03*
X23166049Y-86285917D03*
X20741869Y-81629110D03*
%TD*%
D13*
%TO.C,H2*%
X108756250Y-68814219D03*
%TD*%
D21*
%TO.C,SW_POWER1*%
X28627200Y-33017713D03*
X25627200Y-33017713D03*
%TD*%
D13*
%TO.C,H4*%
X40475095Y-79924152D03*
%TD*%
%TO.C,H1*%
X108458000Y-39878000D03*
%TD*%
D14*
%TO.C,U2*%
X34611222Y-35395299D03*
X34611222Y-37935299D03*
X34611222Y-40475299D03*
X34611222Y-43015299D03*
X34611222Y-45555299D03*
X34611222Y-48095299D03*
X34611222Y-50635299D03*
X34611222Y-53175299D03*
X34611222Y-55715299D03*
X34611222Y-58255299D03*
X34611222Y-60795299D03*
X34611222Y-63335299D03*
X19371222Y-63335299D03*
X19371222Y-60795299D03*
X19371222Y-58255299D03*
X19371222Y-55715299D03*
X19371222Y-53175299D03*
X19371222Y-50635299D03*
X19371222Y-48095299D03*
X19371222Y-45555299D03*
X19371222Y-43015299D03*
X19371222Y-40475299D03*
X19371222Y-37935299D03*
X19371222Y-35395299D03*
%TD*%
D13*
%TO.C,H3*%
X54757251Y-40313723D03*
%TD*%
%TO.C,H4*%
X72756250Y-68813718D03*
%TD*%
D21*
%TO.C,SW_POWER0*%
X231446200Y-33017713D03*
X228446200Y-33017713D03*
%TD*%
D14*
%TO.C,U1*%
X237426991Y-35427145D03*
X237426991Y-37967145D03*
X237426991Y-40507145D03*
X237426991Y-43047145D03*
X237426991Y-45587145D03*
X237426991Y-48127145D03*
X237426991Y-50667145D03*
X237426991Y-53207145D03*
X237426991Y-55747145D03*
X237426991Y-58287145D03*
X237426991Y-60827145D03*
X237426991Y-63367145D03*
X222186991Y-63367145D03*
X222186991Y-60827145D03*
X222186991Y-58287145D03*
X222186991Y-55747145D03*
X222186991Y-53207145D03*
X222186991Y-50667145D03*
X222186991Y-48127145D03*
X222186991Y-45587145D03*
X222186991Y-43047145D03*
X222186991Y-40507145D03*
X222186991Y-37967145D03*
X222186991Y-35427145D03*
%TD*%
M02*
