%TF.GenerationSoftware,KiCad,Pcbnew,7.0.6*%
%TF.CreationDate,2024-11-05T18:23:53-06:00*%
%TF.ProjectId,main,6d61696e-2e6b-4696-9361-645f70636258,rev?*%
%TF.SameCoordinates,Original*%
%TF.FileFunction,Profile,NP*%
%FSLAX46Y46*%
G04 Gerber Fmt 4.6, Leading zero omitted, Abs format (unit mm)*
G04 Created by KiCad (PCBNEW 7.0.6) date 2024-11-05 18:23:53*
%MOMM*%
%LPD*%
G01*
G04 APERTURE LIST*
%TA.AperFunction,Profile*%
%ADD10C,0.050012*%
%TD*%
G04 APERTURE END LIST*
D10*
X223581490Y-105253622D02*
G75*
G03*
X151441997Y-86745543I-72139490J-131336078D01*
G01*
X184441309Y-19548021D02*
X184441309Y-18845479D01*
X91154973Y-18844743D02*
G75*
G03*
X88255818Y-15945327I-2899673J-257D01*
G01*
X162744687Y-21946727D02*
G75*
G03*
X165642827Y-19048530I-87J2898227D01*
G01*
X127155663Y-48235108D02*
X127155663Y-36843940D01*
X168541954Y-15946127D02*
G75*
G03*
X165642827Y-18845564I546J-2899673D01*
G01*
X129274617Y-65761108D02*
X129642108Y-65761108D01*
X129323662Y-70890892D02*
X129642108Y-70890892D01*
X181542578Y-15946149D02*
X168541954Y-15946149D01*
X91154945Y-19047709D02*
X91154945Y-18844743D01*
X57256246Y-22445354D02*
G75*
G03*
X54872089Y-23695520I254J-2898946D01*
G01*
X127483426Y-48235108D02*
G75*
G03*
X129299640Y-48235108I908107J358540D01*
G01*
X129642157Y-83847403D02*
G75*
G03*
X132540248Y-86745543I2898043J-97D01*
G01*
X127155700Y-36843940D02*
G75*
G03*
X124257523Y-33945800I-2898200J-60D01*
G01*
X69458322Y-22445362D02*
G75*
G03*
X72356462Y-19547200I-22J2898162D01*
G01*
X199541526Y-22446161D02*
X187339449Y-22446161D01*
X127155663Y-83846582D02*
X127155663Y-70890892D01*
X124257523Y-33945800D02*
X112053048Y-33945800D01*
X237109504Y-85451694D02*
G75*
G03*
X239223296Y-77562964I-13662704J7888494D01*
G01*
X17574475Y-77562143D02*
G75*
G03*
X19688263Y-85450875I15776635J-207D01*
G01*
X129642108Y-53364892D02*
X129298541Y-53364892D01*
X18590729Y-31089289D02*
G75*
G03*
X17574729Y-32105281I41J-1016041D01*
G01*
X226079944Y-104555542D02*
X237109508Y-85451696D01*
X220441492Y-30074108D02*
G75*
G03*
X221457491Y-31090108I1016008J8D01*
G01*
X239223092Y-32106102D02*
G75*
G03*
X238207042Y-31090108I-1016092J-98D01*
G01*
X184441351Y-18845479D02*
G75*
G03*
X181542578Y-15946149I-2899051J279D01*
G01*
X75255194Y-15945322D02*
G75*
G03*
X72356462Y-18844657I196J-2898928D01*
G01*
X223581479Y-105253642D02*
G75*
G03*
X226079943Y-104555542I892621J1625342D01*
G01*
X52488362Y-24945309D02*
X39256122Y-24945309D01*
X106255781Y-21945849D02*
X94053085Y-21945849D01*
X217541649Y-24946130D02*
X204309410Y-24946130D01*
X30717837Y-104554715D02*
G75*
G03*
X33216281Y-105252801I1605763J927015D01*
G01*
X124257523Y-86744663D02*
G75*
G03*
X127155663Y-83846582I77J2898063D01*
G01*
X144744723Y-33946621D02*
X132540248Y-33946621D01*
X39256122Y-24945310D02*
G75*
G03*
X36356280Y-27844690I-702J-2899140D01*
G01*
X109154900Y-31047660D02*
G75*
G03*
X112053048Y-33945800I2898100J-40D01*
G01*
X129642108Y-48235108D02*
X129299640Y-48235108D01*
X147642863Y-24845791D02*
X147642863Y-31048481D01*
X129298541Y-53364892D02*
G75*
G03*
X127495459Y-53364892I-901541J-355400D01*
G01*
X150541990Y-21946663D02*
G75*
G03*
X147642863Y-24845791I710J-2899837D01*
G01*
X105355774Y-86744722D02*
X124257523Y-86744722D01*
X35340280Y-31089280D02*
G75*
G03*
X36356280Y-30073287I20J1015980D01*
G01*
X129642108Y-36844761D02*
X129642108Y-48235108D01*
X184441239Y-19548021D02*
G75*
G03*
X187339449Y-22446161I2898061J-79D01*
G01*
X72356462Y-18844657D02*
X72356462Y-19547200D01*
X129323662Y-70890892D02*
G75*
G03*
X127470338Y-70890892I-926662J-305377D01*
G01*
X132540248Y-86745543D02*
X151441997Y-86745543D01*
X144744723Y-33946563D02*
G75*
G03*
X147642863Y-31048481I77J2898063D01*
G01*
X201925709Y-23696324D02*
G75*
G03*
X199541526Y-22446161I-2384509J-1648976D01*
G01*
X19688263Y-85450875D02*
X30717828Y-104554720D01*
X239223296Y-77562964D02*
X239223042Y-32106102D01*
X132540248Y-33946708D02*
G75*
G03*
X129642108Y-36844761I52J-2898192D01*
G01*
X220441470Y-27845511D02*
G75*
G03*
X217541649Y-24946130I-2899070J311D01*
G01*
X52488362Y-24945330D02*
G75*
G03*
X54872089Y-23695520I-62J2898230D01*
G01*
X129642108Y-70890892D02*
X129642108Y-83847403D01*
X109154908Y-31047660D02*
X109154908Y-24844969D01*
X127155663Y-53364892D02*
X127155663Y-65761108D01*
X127495459Y-53364892D02*
X127155663Y-53364892D01*
X105355774Y-86744723D02*
G75*
G03*
X33216281Y-105252801I-4J-149844157D01*
G01*
X238207042Y-31090108D02*
X221457491Y-31090108D01*
X162744687Y-21946670D02*
X150541990Y-21946670D01*
X109154851Y-24844969D02*
G75*
G03*
X106255781Y-21945849I-2899751J-631D01*
G01*
X88255818Y-15945327D02*
X75255194Y-15945327D01*
X69458322Y-22445340D02*
X57256246Y-22445340D01*
X91154951Y-19047709D02*
G75*
G03*
X94053085Y-21945849I2898149J9D01*
G01*
X127155663Y-70890892D02*
X127470338Y-70890892D01*
X127155663Y-65761108D02*
X127519383Y-65761108D01*
X35340280Y-31089287D02*
X18590729Y-31089287D01*
X201925680Y-23696344D02*
G75*
G03*
X204309410Y-24946130I2383720J1648344D01*
G01*
X127483427Y-48235108D02*
X127155663Y-48235108D01*
X129642108Y-65761108D02*
X129642108Y-53364892D01*
X165642827Y-18845564D02*
X165642827Y-19048530D01*
X17574729Y-32105281D02*
X17574475Y-77562143D01*
X36356280Y-27844690D02*
X36356280Y-30073287D01*
X127519384Y-65761108D02*
G75*
G03*
X129274616Y-65761108I877616J406434D01*
G01*
X220441491Y-30074108D02*
X220441491Y-27845511D01*
M02*
